HIERARCHY
ROOT Hip
{
	OFFSET	0.0000	0.0000	0.0000
	CHANNELS 6 Xposition Yposition Zposition Xrotation Yrotation Zrotation
	JOINT LowerSpine
	{
		OFFSET	0.0000	9.5494	-5.1676
		CHANNELS 3 Xrotation Yrotation Zrotation
		JOINT MiddleSpine
		{
			OFFSET	0.0000	8.7146	0.4552
			CHANNELS 3 Xrotation Yrotation Zrotation
			JOINT Chest
			{
				OFFSET	0.0000	10.7833	-2.4002
				CHANNELS 3 Xrotation Yrotation Zrotation
				JOINT Neck
				{
					OFFSET	0.0000	24.2996	-0.5053
					CHANNELS 3 Xrotation Yrotation Zrotation
					JOINT Head
					{
						OFFSET	0.0000	13.7223	3.7325
						CHANNELS 3 Xrotation Yrotation Zrotation
						End Site
						{
							OFFSET	0.0001	19.1736	0.5724
						}
					}
				}
				JOINT LClavicle
				{
					OFFSET	2.4533	23.4504	8.0342
					CHANNELS 3 Xrotation Yrotation Zrotation
					JOINT LShoulder
					{
						OFFSET	14.3322	3.3636	-5.4426
						CHANNELS 3 Xrotation Yrotation Zrotation
						JOINT LForearm
						{
							OFFSET	30.4446	-0.1081	-0.2638
							CHANNELS 3 Xrotation Yrotation Zrotation
							JOINT LHand
							{
								OFFSET	25.3972	0.0737	-0.1521
								CHANNELS 3 Xrotation Yrotation Zrotation
								JOINT LFinger1
								{
									OFFSET	9.8432	0.8608	2.7339
									CHANNELS 3 Xrotation Yrotation Zrotation
									JOINT LFinger11
									{
										OFFSET	3.6819	-0.8978	0.6488
										CHANNELS 3 Xrotation Yrotation Zrotation
										JOINT LFinger12
										{
											OFFSET	2.5135	-0.6132	0.4431
											CHANNELS 3 Xrotation Yrotation Zrotation
											End Site
											{
												OFFSET	1.7886	-0.5339	0.2901
											}
										}
									}
								}
								JOINT LFinger2
								{
									OFFSET	9.9901	0.9941	0.2380
									CHANNELS 3 Xrotation Yrotation Zrotation
									JOINT LFinger21
									{
										OFFSET	4.5524	0.0127	-0.0269
										CHANNELS 3 Xrotation Yrotation Zrotation
										JOINT LFinger22
										{
											OFFSET	2.5233	0.0077	-0.0154
											CHANNELS 3 Xrotation Yrotation Zrotation
											End Site
											{
												OFFSET	2.2665	-0.1600	0.0030
											}
										}
									}
								}
								JOINT LFinger3
								{
									OFFSET	9.4677	0.6633	-2.2398
									CHANNELS 3 Xrotation Yrotation Zrotation
									JOINT LFinger31
									{
										OFFSET	4.1308	-0.2092	-0.2586
										CHANNELS 3 Xrotation Yrotation Zrotation
										JOINT LFinger32
										{
											OFFSET	2.3539	-0.1184	-0.1479
											CHANNELS 3 Xrotation Yrotation Zrotation
											End Site
											{
												OFFSET	2.0813	-0.2559	-0.0984
											}
										}
									}
								}
								JOINT LFinger4
								{
									OFFSET	8.7856	-0.6677	-3.8683
									CHANNELS 3 Xrotation Yrotation Zrotation
									JOINT LFinger41
									{
										OFFSET	2.5409	-0.5299	-0.7014
										CHANNELS 3 Xrotation Yrotation Zrotation
										JOINT LFinger42
										{
											OFFSET	1.8632	-0.3881	-0.5146
											CHANNELS 3 Xrotation Yrotation Zrotation
											End Site
											{
												OFFSET	1.6537	-0.4544	-0.3794
											}
										}
									}
								}
								JOINT LFinger0
								{
									OFFSET	2.0361	-1.5412	1.5436
									CHANNELS 3 Xrotation Yrotation Zrotation
									JOINT LFinger01
									{
										OFFSET	3.7911	-1.2452	2.8583
										CHANNELS 3 Xrotation Yrotation Zrotation
										JOINT LFinger02
										{
											OFFSET	2.4964	-0.8932	1.7986
											CHANNELS 3 Xrotation Yrotation Zrotation
											End Site
											{
												OFFSET	1.8357	-0.6319	1.2570
											}
										}
									}
								}
							}
						}
					}
				}
				JOINT RClavicle
				{
					OFFSET	-2.4533	23.4504	8.0342
					CHANNELS 3 Xrotation Yrotation Zrotation
					JOINT RShoulder
					{
						OFFSET	-14.3348	3.3642	-5.4436
						CHANNELS 3 Xrotation Yrotation Zrotation
						JOINT RForearm
						{
							OFFSET	-30.4446	-0.1081	-0.2638
							CHANNELS 3 Xrotation Yrotation Zrotation
							JOINT RHand
							{
								OFFSET	-25.3972	0.0737	-0.1521
								CHANNELS 3 Xrotation Yrotation Zrotation
								JOINT RFinger1
								{
									OFFSET	-9.8432	0.8608	2.7339
									CHANNELS 3 Xrotation Yrotation Zrotation
									JOINT RFinger11
									{
										OFFSET	-3.6819	-0.8978	0.6488
										CHANNELS 3 Xrotation Yrotation Zrotation
										JOINT RFinger12
										{
											OFFSET	-2.5135	-0.6132	0.4431
											CHANNELS 3 Xrotation Yrotation Zrotation
											End Site
											{
												OFFSET	-1.7886	-0.5339	0.2901
											}
										}
									}
								}
								JOINT RFinger2
								{
									OFFSET	-9.9901	0.9941	0.2380
									CHANNELS 3 Xrotation Yrotation Zrotation
									JOINT RFinger21
									{
										OFFSET	-4.5524	0.0127	-0.0269
										CHANNELS 3 Xrotation Yrotation Zrotation
										JOINT RFinger22
										{
											OFFSET	-2.5233	0.0077	-0.0154
											CHANNELS 3 Xrotation Yrotation Zrotation
											End Site
											{
												OFFSET	-2.2665	-0.1600	0.0030
											}
										}
									}
								}
								JOINT RFinger3
								{
									OFFSET	-9.4677	0.6633	-2.2398
									CHANNELS 3 Xrotation Yrotation Zrotation
									JOINT RFinger31
									{
										OFFSET	-4.1308	-0.2091	-0.2586
										CHANNELS 3 Xrotation Yrotation Zrotation
										JOINT RFinger32
										{
											OFFSET	-2.3539	-0.1184	-0.1479
											CHANNELS 3 Xrotation Yrotation Zrotation
											End Site
											{
												OFFSET	-2.0813	-0.2559	-0.0984
											}
										}
									}
								}
								JOINT RFinger4
								{
									OFFSET	-8.7856	-0.6677	-3.8683
									CHANNELS 3 Xrotation Yrotation Zrotation
									JOINT RFinger41
									{
										OFFSET	-2.5409	-0.5299	-0.7014
										CHANNELS 3 Xrotation Yrotation Zrotation
										JOINT RFinger42
										{
											OFFSET	-1.8632	-0.3881	-0.5146
											CHANNELS 3 Xrotation Yrotation Zrotation
											End Site
											{
												OFFSET	-1.6537	-0.4544	-0.3794
											}
										}
									}
								}
								JOINT RFinger0
								{
									OFFSET	-2.0361	-1.5412	1.5436
									CHANNELS 3 Xrotation Yrotation Zrotation
									JOINT RFinger01
									{
										OFFSET	-3.7911	-1.2452	2.8583
										CHANNELS 3 Xrotation Yrotation Zrotation
										JOINT RFinger02
										{
											OFFSET	-2.4964	-0.8932	1.7986
											CHANNELS 3 Xrotation Yrotation Zrotation
											End Site
											{
												OFFSET	-1.8357	-0.6319	1.2570
											}
										}
									}
								}
							}
						}
					}
				}
			}
		}
	}
	JOINT RThigh
	{
		OFFSET	-10.2155	4.3166	-0.8421
		CHANNELS 3 Xrotation Yrotation Zrotation
		JOINT RShin
		{
			OFFSET	-0.8174	-44.4328	0.0000
			CHANNELS 3 Xrotation Yrotation Zrotation
			JOINT RFoot
			{
				OFFSET	0.0000	-43.6302	0.0000
				CHANNELS 3 Xrotation Yrotation Zrotation
				JOINT RToe
				{
					OFFSET	0.0000	-4.7954	10.0277
					CHANNELS 3 Xrotation Yrotation Zrotation
					End Site
					{
						OFFSET	0.0000	0.0000	6.7272
					}
				}
			}
		}
	}
	JOINT LThigh
	{
		OFFSET	10.2154	4.3169	-0.8421
		CHANNELS 3 Xrotation Yrotation Zrotation
		JOINT LShin
		{
			OFFSET	0.8175	-44.4331	0.0000
			CHANNELS 3 Xrotation Yrotation Zrotation
			JOINT LFoot
			{
				OFFSET	0.0000	-43.6302	0.0000
				CHANNELS 3 Xrotation Yrotation Zrotation
				JOINT LToe
				{
					OFFSET	0.0000	-4.7954	10.0278
					CHANNELS 3 Xrotation Yrotation Zrotation
					End Site
					{
						OFFSET	0.0000	0.0000	6.7272
					}
				}
			}
		}
	}
}
MOTION
Frames:	7
Frame Time: 0.0333333000
	21.5451	91.5517	61.1120	324.803300	-36.182750	-382.227900	0.000000	0.000000	0.000000	9.422539	0.381588	0.620200	31.394640	1.624115	1.766785	0.000000	0.000000	0.000000	0.000000	0.000000	0.000000	0.000000	0.000000	-7.319895	-33.433500	-42.332320	-59.503320	-24.183610	-85.722660	-0.937434	0.000000	0.000000	0.000000	0.000000	0.000000	0.000000	0.000000	0.000000	0.000000	0.000000	0.000000	0.000000	0.000000	0.000000	0.000000	0.000000	0.000000	0.000000	0.000000	0.000000	0.000000	0.000000	0.000000	0.000000	0.000000	0.000000	0.000000	0.000000	0.000000	0.000000	0.000000	0.000000	0.000000	0.000000	0.000000	0.000000	0.000000	0.000000	0.000000	0.000000	0.000000	0.000000	0.000000	0.000000	0.000000	0.000000	0.000000	0.000000	0.000000	0.000000	11.683660	-8.768882	39.393190	56.211930	-7.855127	98.149250	-1.295304	0.000000	0.000000	0.000000	0.000000	0.000000	0.000000	0.000000	0.000000	0.000000	0.000000	0.000000	0.000000	0.000000	0.000000	0.000000	0.000000	0.000000	0.000000	0.000000	0.000000	0.000000	0.000000	0.000000	0.000000	0.000000	0.000000	0.000000	0.000000	0.000000	0.000000	0.000000	0.000000	0.000000	0.000000	0.000000	0.000000	0.000000	0.000000	0.000000	0.000000	0.000000	0.000000	0.000000	0.000000	0.000000	0.000000	0.000000	0.000000	31.198280	-1.803058	-5.983871	-0.565563	-0.015998	2.674052	-8.063805	3.482483	2.171297	0.000000	0.000000	0.000000	30.756190	0.535806	1.977371	5.032448	-0.245213	-0.046500	-9.937357	19.636360	11.535610	-0.000001	0.000000	0.000000
	21.6027	91.5405	61.1489	324.885800	-36.355690	-382.182700	0.000000	0.000000	0.000000	9.401066	0.348961	0.538345	31.325910	1.466435	1.523139	0.000000	0.000000	0.000000	0.000000	0.000000	0.000000	0.000000	0.000000	-7.379384	-32.743820	-42.172600	-58.997860	-24.024650	-86.183320	-1.071439	0.000000	0.000000	0.000000	0.000000	0.000000	0.000000	0.000000	0.000000	0.000000	0.000000	0.000000	0.000000	0.000000	0.000000	0.000000	0.000000	0.000000	0.000000	0.000000	0.000000	0.000000	0.000000	0.000000	0.000000	0.000000	0.000000	0.000000	0.000000	0.000000	0.000000	0.000000	0.000000	0.000000	0.000000	0.000000	0.000000	0.000000	0.000000	0.000000	0.000000	0.000000	0.000000	0.000000	0.000000	0.000000	0.000000	0.000000	0.000000	0.000000	0.000000	11.847940	-9.286594	39.414370	57.523280	-8.314280	98.221760	-1.248149	0.000000	0.000000	0.000000	0.000000	0.000000	0.000000	0.000000	0.000000	0.000000	0.000000	0.000000	0.000000	0.000000	0.000000	0.000000	0.000000	0.000000	0.000000	0.000000	0.000000	0.000000	0.000000	0.000000	0.000000	0.000000	0.000000	0.000000	0.000000	0.000000	0.000000	0.000000	0.000000	0.000000	0.000000	0.000000	0.000000	0.000000	0.000000	0.000000	0.000000	0.000000	0.000000	0.000000	0.000000	0.000000	0.000000	0.000000	0.000000	31.150940	-1.863738	-6.209475	-0.849208	-0.020996	3.013294	-7.468316	3.306140	2.047364	0.000000	0.000000	0.000000	30.955000	0.503512	1.848024	4.507586	-0.184969	-0.279396	-9.731792	20.559260	11.995130	-0.000001	0.000000	0.000000
	21.6172	91.5365	61.2480	324.864500	-36.350290	-382.021100	0.000000	0.000000	0.000000	9.368145	0.389282	0.478410	31.217950	1.558602	1.305142	0.000000	0.000000	0.000000	0.000000	0.000000	0.000000	0.000000	0.000000	-7.473430	-32.571880	-42.285640	-59.378850	-23.721710	-85.836360	-0.961640	0.000000	0.000000	0.000000	0.000000	0.000000	0.000000	0.000000	0.000000	0.000000	0.000000	0.000000	0.000000	0.000000	0.000000	0.000000	0.000000	0.000000	0.000000	0.000000	0.000000	0.000000	0.000000	0.000000	0.000000	0.000000	0.000000	0.000000	0.000000	0.000000	0.000000	0.000000	0.000000	0.000000	0.000000	0.000000	0.000000	0.000000	0.000000	0.000000	0.000000	0.000000	0.000000	0.000000	0.000000	0.000000	0.000000	0.000000	0.000000	0.000000	0.000000	11.940440	-9.478670	39.360220	58.154140	-8.525961	98.288180	-1.234242	0.000000	0.000000	0.000000	0.000000	0.000000	0.000000	0.000000	0.000000	0.000000	0.000000	0.000000	0.000000	0.000000	0.000000	0.000000	0.000000	0.000000	0.000000	0.000000	0.000000	0.000000	0.000000	0.000000	0.000000	0.000000	0.000000	0.000000	0.000000	0.000000	0.000000	0.000000	0.000000	0.000000	0.000000	0.000000	0.000000	0.000000	0.000000	0.000000	0.000000	0.000000	0.000000	0.000000	0.000000	0.000000	0.000000	0.000000	0.000000	31.080070	-1.934731	-6.477283	-0.465458	-0.012879	3.226481	-7.554364	3.259140	2.025165	0.000000	0.000000	0.000000	31.326610	0.484409	1.758573	3.963637	-0.121749	-0.787437	-8.944602	21.453560	12.284920	-0.000001	0.000000	0.000000
	21.7069	91.5207	61.4773	324.680700	-36.441840	-381.999200	0.000000	0.000000	0.000000	9.328269	0.441658	0.476244	31.084610	1.726081	1.267027	0.000000	0.000000	0.000000	0.000000	0.000000	0.000000	0.000000	0.000000	-7.677458	-32.501280	-42.128520	-60.410270	-23.637300	-85.404960	-0.832958	0.000000	0.000000	0.000000	0.000000	0.000000	0.000000	0.000000	0.000000	0.000000	0.000000	0.000000	0.000000	0.000000	0.000000	0.000000	0.000000	0.000000	0.000000	0.000000	0.000000	0.000000	0.000000	0.000000	0.000000	0.000000	0.000000	0.000000	0.000000	0.000000	0.000000	0.000000	0.000000	0.000000	0.000000	0.000000	0.000000	0.000000	0.000000	0.000000	0.000000	0.000000	0.000000	0.000000	0.000000	0.000000	0.000000	0.000000	0.000000	0.000000	0.000000	11.985420	-9.166625	38.928600	57.960330	-8.589153	98.589880	-1.200337	0.000000	0.000000	0.000000	0.000000	0.000000	0.000000	0.000000	0.000000	0.000000	0.000000	0.000000	0.000000	0.000000	0.000000	0.000000	0.000000	0.000000	0.000000	0.000000	0.000000	0.000000	0.000000	0.000000	0.000000	0.000000	0.000000	0.000000	0.000000	0.000000	0.000000	0.000000	0.000000	0.000000	0.000000	0.000000	0.000000	0.000000	0.000000	0.000000	0.000000	0.000000	0.000000	0.000000	0.000000	0.000000	0.000000	0.000000	0.000000	30.948770	-2.044209	-6.904623	0.228178	0.006688	3.390505	-8.131639	3.016547	1.909908	0.000000	0.000000	0.000000	31.937660	0.457440	1.629763	3.242428	-0.064364	-1.380394	-8.101927	22.064650	12.389720	-0.000001	0.000000	0.000000
	21.9072	91.4708	61.8588	324.306500	-36.756100	-382.319200	0.000000	0.000000	0.000000	9.311627	0.413894	0.520555	31.027990	1.663355	1.428353	0.000000	0.000000	0.000000	0.000000	0.000000	0.000000	0.000000	0.000000	-7.959439	-32.096990	-41.446310	-61.319080	-23.915770	-85.777680	-0.889205	0.000000	0.000000	0.000000	0.000000	0.000000	0.000000	0.000000	0.000000	0.000000	0.000000	0.000000	0.000000	0.000000	0.000000	0.000000	0.000000	0.000000	0.000000	0.000000	0.000000	0.000000	0.000000	0.000000	0.000000	0.000000	0.000000	0.000000	0.000000	0.000000	0.000000	0.000000	0.000000	0.000000	0.000000	0.000000	0.000000	0.000000	0.000000	0.000000	0.000000	0.000000	0.000000	0.000000	0.000000	0.000000	0.000000	0.000000	0.000000	0.000000	0.000000	11.960400	-8.676653	38.529280	57.259280	-8.478313	98.872590	-1.165968	0.000000	0.000000	0.000000	0.000000	0.000000	0.000000	0.000000	0.000000	0.000000	0.000000	0.000000	0.000000	0.000000	0.000000	0.000000	0.000000	0.000000	0.000000	0.000000	0.000000	0.000000	0.000000	0.000000	0.000000	0.000000	0.000000	0.000000	0.000000	0.000000	0.000000	0.000000	0.000000	0.000000	0.000000	0.000000	0.000000	0.000000	0.000000	0.000000	0.000000	0.000000	0.000000	0.000000	0.000000	0.000000	0.000000	0.000000	0.000000	30.865290	-2.193352	-7.458272	0.827436	0.026156	3.553005	-8.954913	2.703594	1.754670	0.000000	0.000000	0.000000	32.744560	0.351507	1.230525	2.437011	-0.031861	-1.426072	-7.375622	22.352730	12.345660	-0.000001	0.000000	0.000000
	22.1467	91.4163	62.3387	323.801800	-37.048180	-382.810400	0.000000	0.000000	0.000000	9.321683	0.306083	0.562288	31.061780	1.340422	1.629898	0.000000	0.000000	0.000000	0.000000	0.000000	0.000000	0.000000	0.000000	-8.207756	-31.567260	-40.666190	-61.868830	-24.361750	-86.472810	-1.110613	0.000000	0.000000	0.000000	0.000000	0.000000	0.000000	0.000000	0.000000	0.000000	0.000000	0.000000	0.000000	0.000000	0.000000	0.000000	0.000000	0.000000	0.000000	0.000000	0.000000	0.000000	0.000000	0.000000	0.000000	0.000000	0.000000	0.000000	0.000000	0.000000	0.000000	0.000000	0.000000	0.000000	0.000000	0.000000	0.000000	0.000000	0.000000	0.000000	0.000000	0.000000	0.000000	0.000000	0.000000	0.000000	0.000000	0.000000	0.000000	0.000000	0.000000	11.810000	-8.465994	38.736460	56.366920	-8.140683	98.635720	-1.184655	0.000000	0.000000	0.000000	0.000000	0.000000	0.000000	0.000000	0.000000	0.000000	0.000000	0.000000	0.000000	0.000000	0.000000	0.000000	0.000000	0.000000	0.000000	0.000000	0.000000	0.000000	0.000000	0.000000	0.000000	0.000000	0.000000	0.000000	0.000000	0.000000	0.000000	0.000000	0.000000	0.000000	0.000000	0.000000	0.000000	0.000000	0.000000	0.000000	0.000000	0.000000	0.000000	0.000000	0.000000	0.000000	0.000000	0.000000	0.000000	31.068900	-2.347674	-7.958941	1.040042	0.032714	3.616385	-9.639586	2.872727	1.869664	0.000000	0.000000	0.000000	33.627710	0.148999	0.519900	1.726748	-0.010059	-0.743856	-6.929029	22.744620	12.443930	-0.000001	0.000000	0.000000
	22.3166	91.3912	62.7061	323.342600	-37.106040	-383.370600	0.000000	0.000000	0.000000	9.346807	0.173382	0.622806	31.146880	0.949507	1.907622	0.000000	0.000000	0.000000	0.000000	0.000000	0.000000	0.000000	0.000000	-8.352322	-31.121410	-40.135680	-62.029080	-24.588300	-86.739400	-1.232526	0.000000	0.000000	0.000000	0.000000	0.000000	0.000000	0.000000	0.000000	0.000000	0.000000	0.000000	0.000000	0.000000	0.000000	0.000000	0.000000	0.000000	0.000000	0.000000	0.000000	0.000000	0.000000	0.000000	0.000000	0.000000	0.000000	0.000000	0.000000	0.000000	0.000000	0.000000	0.000000	0.000000	0.000000	0.000000	0.000000	0.000000	0.000000	0.000000	0.000000	0.000000	0.000000	0.000000	0.000000	0.000000	0.000000	0.000000	0.000000	0.000000	0.000000	11.591030	-8.699840	39.583520	55.720700	-7.673389	98.010250	-1.294485	0.000000	0.000000	0.000000	0.000000	0.000000	0.000000	0.000000	0.000000	0.000000	0.000000	0.000000	0.000000	0.000000	0.000000	0.000000	0.000000	0.000000	0.000000	0.000000	0.000000	0.000000	0.000000	0.000000	0.000000	0.000000	0.000000	0.000000	0.000000	0.000000	0.000000	0.000000	0.000000	0.000000	0.000000	0.000000	0.000000	0.000000	0.000000	0.000000	0.000000	0.000000	0.000000	0.000000	0.000000	0.000000	0.000000	0.000000	0.000000	31.391040	-2.395202	-8.047051	1.035884	0.031888	3.542352	-9.585766	3.709563	2.364206	0.000000	0.000000	0.000000	34.242910	0.025237	0.103562	1.583391	-0.001638	-0.211399	-7.350813	23.559390	13.014440	-0.000001	0.000000	0.000000
